<?xml version="1.0" encoding="utf-8"?>
<!-- Generator: Adobe Illustrator 24.3.0, SVG Export Plug-In . SVG Version: 6.00 Build 0)  -->
<svg version="1.1" id="Ebene_1" xmlns="http://www.w3.org/2000/svg" xmlns:xlink="http://www.w3.org/1999/xlink" x="0px" y="0px"
	 viewBox="0 0 201 50.1" style="enable-background:new 0 0 201 50.1;" xml:space="preserve">
<style type="text/css">
	.st0{fill:#FFFFFF;}
</style>
<g>
	<g>
		<path class="st0" d="M0,30C0,20,0,10,0,0c67,0,134,0,201,0c0,16.7,0,33.4,0,50.1c-67,0-134,0-201,0C0,43.5,0,36.8,0,30
			c0.3,0.6,0.7,1.1,1.3,1.1c0.8,0.1,1.5,0.1,2.3-0.1c2.4-0.6,4.9-0.8,7.4-0.8c2.3,0.1,4.6,0.2,6.9,0.4c2.7,0.2,5.4,0.7,8.1,1.5
			c3.1,0.9,6,2.2,8.7,4.1c1.4,1,2.3,2.3,2.1,4.1c0,0.4-0.2,0.8-0.2,1.2c0.3,2.3,0.6,4.6,0.8,6.9c0.1,0.7,0.5,1.2,1.1,1.5
			c0.1,0.1,0.4,0.1,0.5,0c0.6-0.4,1.3-0.8,1.6-1.4c0.7-1.4,1-2.9,0.8-4.4c-0.2-1.9-1-3.6-2.2-5c-1.1-1.3-1.4-2.7-1-4.4
			c0.2-0.9,0.4-1.9,0.5-2.8c0-0.1-0.1-0.4-0.2-0.4c-0.2-0.1-0.4,0-0.5,0.3c0,0.1,0,0.1-0.1,0.1c-0.3,1.1-0.5,2.1-0.8,3.2
			c-0.1,0.4-0.2,0.9-0.4,1.3c-0.2-0.1-0.3-0.2-0.4-0.2c-4.2-3-8.8-5.1-13.8-6.1c-2-0.4-4.1-0.7-6.2-0.9C15.5,29,14.4,29,13.3,29
			c-2.2,0-4.4,0-6.7,0c-0.9,0-1.8,0-2.6,0c5.9-3.9,11.9-7.7,17.8-11.7C27.6,13.1,33.2,8.8,39,4.5c0,0.5,0,1-0.1,1.4
			c-0.5,2.8-1.1,5.6-1.6,8.4c-0.4,2.2-1.4,4.1-3.2,5.4c-1.7,1.2-3.3,2.4-5,3.5c-1.9,1.3-3.9,2.6-5.8,3.9c-0.1,0.1-0.2,0.3-0.4,0.4
			c0,0,0.1,0.1,0.1,0.1c1.1-0.2,2.1-0.4,3.1-1c2.9-1.9,5.7-3.8,8.6-5.7c0.3-0.2,0.7-0.4,1.1-0.7c0.1,0,0.1,0.1,0.2,0.1
			c-0.1,0.6,0,1.2-0.2,1.7c-0.2,0.9-0.5,1.8-0.8,2.8c-0.2,0.6-0.2,1.3,0.2,1.9c0.1,0.1,0.3,0.2,0.4,0.3c0,0,0.2-0.2,0.2-0.3
			c0.1-0.4,0.2-0.7,0.3-1.1c0.4-1.6,0.9-3.2,1.1-4.8c0.3-2,1.2-3.6,3-4.7c0.5-0.3,1-0.8,1.5-1.2c0.3-0.2,0.5-0.4,0.9-0.7
			c-0.6,2.3-1.1,4.4-1.7,6.5c0.4,0.2,0.6,0.1,0.8-0.3c0.2-0.8,0.5-1.5,0.7-2.3c0.9-3.1,2.3-6,4.7-8.3c2.5-2.4,4.5-5.2,6.5-8
			C54.1,1.4,54,0.8,54,0.1c-0.6,0.1-1.3,0-1.7,0.6c-2.3,2.6-4.7,5.2-6.6,8.2c-0.9,1.4-1.9,2.8-3.2,3.8c-1.1,0.9-2.2,1.7-3.3,2.6
			c-0.2,0.2-0.6,0.1-0.6-0.2c0-0.2,0-0.3,0-0.5c0.8-3.7,1.6-7.4,2.3-11.1c0.2-0.7-0.2-1.3-0.3-1.8c-1.3-0.2-2.2,0.4-3,1.2
			c-0.9,0.8-1.9,1.7-2.8,2.6c-1.1,1.1-2.2,2.1-3.4,2.9c-1.3,0.9-2.5,1.8-3.8,2.7c-8.7,6-17.1,12.4-26.3,17.7C0.7,29,0.3,29.4,0,30z
			 M137.7,19.8c0.2-0.6,0.4-1.3,0.6-1.9c0.7-2.3,1.7-4.5,3.2-6.4c1-1.2,2.1-2.2,3.1-3.4c0.5-0.6,1-1.2,1.5-1.8c1,0.4,2,0.7,3,1.1
			c1.5,0.5,2.9,1,4.2,1.9c2.5,1.8,4,4.2,4.7,7.1c0.2,0.8,0.6,1.3,1.2,1.7c0.1-0.1,0.1-0.2,0.2-0.2c0.5-0.6,0.5-1.3,0.5-2
			c-0.1-1.7-0.1-3.3-0.1-5c0-0.8,0.4-1.2,1.2-1.2c0.5,0,0.9,0,1.4,0c2.5,0.2,4.9,0.4,7.4,0.4c4,0.1,8,0,12,0c2.1,0,4.2-0.1,6.3-0.2
			c2.8-0.1,5.6-0.2,8.3-0.4c1.5-0.1,3-0.2,4.5-0.3c0-0.5,0-0.9,0-1.2c-1.1,0-2.1,0-3.1,0c-2.7,0.1-5.3,0.3-8,0.4
			c-2.1,0.1-4.2,0.2-6.2,0.2c-5.8,0.2-11.6,0.1-17.4-0.4c-2.6-0.2-5.1-0.5-7.7-0.8c-2.9-0.3-5.7-1-8.5-2.1c-0.8-0.3-1.6-0.7-2.4-1
			c0.6-0.9,1.2-1.7,1.8-2.5c0.4-0.5,0.5-1,0.4-1.6c0-0.1-0.2-0.3-0.3-0.3c-0.6-0.1-1.1,0.2-1.5,0.6c-2.5,2.8-5,5.6-7.1,8.8
			c-0.9,1.4-2,2.6-3.4,3.6c-0.8,0.6-1.6,1.2-2.3,1.8c-0.1,0.1-0.2,0.2-0.3,0.3c-0.3,0.2-0.6,0.1-0.7-0.3c0-0.2,0-0.4,0-0.5
			c0.7-3.2,1.4-6.5,2.1-9.7c0.2-0.9,0.5-1.8,0.1-2.7c-0.1-0.3-0.2-0.5-0.6-0.4c-0.5,0.1-1.1,0.2-1.5,0.5c-1.1,0.9-2.2,1.8-3.2,2.8
			c-1.2,1.2-2.4,2.3-3.8,3.3c-7.3,5.1-14.7,10.3-22,15.4c-2.7,1.9-5.7,3.5-8.5,5.3c-0.4,0.2-0.7,0.6-0.9,0.9c-0.1,0.1-0.1,0.5,0,0.6
			c0.3,0.3,0.7,0.7,1.2,0.8c0.7,0.1,1.4,0.1,2.1,0c2.6-0.6,5.2-0.9,7.8-0.8c2.5,0.1,5.1,0.3,7.6,0.5c2.4,0.2,4.8,0.7,7.2,1.4
			c3.1,0.9,6,2.2,8.6,4c1.2,0.8,2.1,1.9,2.1,3.5c0,0.8,0,0.8,0.7,1c0,0,0.1,0,0.1,0c0.1-0.4,0.1-0.9,0.2-1.3
			c0.2,0.1,0.4,0.2,0.5,0.3c0.8,0.6,1.4,1.4,1.7,2.4c0.3,1.1,0.2,2.2-0.1,3.3c-0.2,0.9-0.5,1.7-1.1,2.6c-0.3-0.8-0.6-1.4-0.8-2
			c-0.1-0.3-0.3-0.4-0.6-0.4c-0.3,0.1-0.3,0.3-0.3,0.5c0.1,0.8,0.2,1.5,0.3,2.3c0.1,0.7,0.5,1.1,1,1.5c0.2,0.1,0.5,0.2,0.7,0.1
			c0.6-0.4,1.2-0.8,1.5-1.4c0.8-1.5,1-3.2,0.6-4.9c-0.4-1.8-1.2-3.3-2.3-4.7c-0.5-0.6-0.9-1.3-0.9-2.1c0-0.7,0.1-1.3,0.2-2
			c0.1-0.6,0.2-1.2,0.3-1.9c-0.3-0.1-0.5-0.1-0.7-0.1c-0.3,1.2-0.6,2.4-1,3.7c-0.3-0.2-0.4-0.3-0.6-0.4c-3-2.1-6.2-3.8-9.7-4.9
			c-3-1-6.1-1.6-9.3-1.9c-1.8-0.2-3.6-0.4-5.3-0.4c-2.6,0-5.2,0.1-7.8,0.2c-0.1,0-0.2,0-0.4-0.1c0.1-0.1,0.1-0.2,0.2-0.2
			c12-7.5,23.6-15.5,34.7-24.2c0.1,0,0.1-0.1,0.2-0.1c0,0,0.1,0,0.2,0c0,0.5-0.1,1-0.1,1.5c-0.5,2.8-1,5.5-1.5,8.2
			c-0.4,2.1-1.2,3.9-2.9,5.3c-0.6,0.5-1.2,0.9-1.8,1.4c-3,2-5.9,4-8.9,6.1c-0.2,0.1-0.3,0.3-0.6,0.4c0.1,0.1,0.2,0.1,0.2,0.1
			c0.1,0,0.2,0,0.3,0c0.8-0.1,1.6-0.3,2.3-0.8c2.8-1.9,5.7-3.8,8.5-5.7c0.4-0.3,0.9-0.6,1.4-0.9c0.1,0.3,0.1,0.4,0.1,0.6
			c-0.1,0.6-0.1,1.2-0.2,1.8c-0.2,0.8-0.5,1.6-0.6,2.3c-0.1,0.6,0.1,1.2,0.1,1.8c0,0.1,0.2,0.3,0.4,0.3c0.1,0,0.2-0.2,0.3-0.3
			c0.1-0.1,0.1-0.3,0.1-0.4c0.5-1.9,1-3.8,1.4-5.8c0.3-1.7,1.1-3.1,2.5-4.1c0.5-0.4,1-0.8,1.5-1.1c0.4-0.3,0.8-0.7,1.3-1.1
			c0,0.2,0,0.2,0,0.3c-0.4,1.5-0.8,3.1-1.2,4.6C137.1,19.5,137.1,19.8,137.7,19.8z M77.5,26.5c0.1-0.6,0.1-1.1-0.2-1.6
			c-0.5-0.9-0.8-1.8-1-2.8c-0.1-0.6-0.3-1.2-0.9-1.3c-0.9-0.1-1.4-0.6-1.8-1.3c-0.2-0.3-0.6-0.3-0.9,0c-0.2,0.2-0.3,0.5-0.5,0.7
			c-1,1.6-2.6,2.2-4.5,1.8c-1.1-0.3-1.4-0.1-0.7-1.5c1.3-2.8,1.6-5.8,1.1-8.8c-0.1-0.6-0.5-1.1-0.7-1.6c-0.2,0-0.2,0.1-0.2,0.1
			c-0.1,0.1-0.1,0.1-0.2,0.2c-0.7,0.7-0.9,1.6-1,2.5c-0.2,2-0.5,4-0.6,6c-0.1,0.8-0.2,1.5-0.6,2.2c-1.2,2-2.8,3.6-4.9,4.6
			c-0.5,0.3-1.2,0.4-1.7,0.4c-0.9-0.1-1.7-0.6-1.4-1.8c0.2-0.6,0.4-1.2,0.7-1.8c0.4-0.9,0.9-1.7,1.4-2.6c0.5-0.9,0.4-1.7-0.3-2.7
			c-0.4,0.3-0.8,0.6-1.1,0.9c-0.7,1-1.3,2-1.9,2.9c-0.1,0.1-0.2,0.3-0.3,0.4c-0.2-0.2-0.4-0.3-0.5-0.4c-0.9-0.8-1.7-1.7-2.6-2.6
			c-0.8-0.8-1.7-0.5-2,0.5c0,0.2-0.1,0.3-0.1,0.5c-0.3,1.2-0.8,2.3-1.9,3c-0.1,0.1-0.2,0.3-0.2,0.4c-0.2,2.3-0.3,4.6-0.5,6.9
			c-0.1,0.7,0.4,1,0.8,1.4c0.5-0.4,0.9-0.9,1-1.5c0.5-2.4,1-4.8,1.5-7.1c0.2-0.8,0.3-1.7,0.5-2.5c0.1,0.1,0.2,0.1,0.2,0.2
			c0.7,0.8,1.4,1.6,2.1,2.4c0.7,0.8,1.2,1.8,1.5,2.9c0.1,0.4,0.3,0.9,0.5,1.2c0.6,1,1.7,1.5,2.9,1.3c1-0.2,1.9-0.7,2.7-1.3
			c0.7-0.5,1.3-1.1,2-1.5c0.4-0.3,0.9-0.4,1.4-0.6c0.1,0.5,0.1,0.8,0.1,1.1c0,1.1,0,2.3,0.1,3.5c0.1,0.7,0.3,1.4,0.5,2.1
			c0,0.1,0.3,0.2,0.4,0.2c0.1,0,0.2-0.2,0.2-0.3c0.1-0.1,0-0.3,0-0.4c0-1.3,0-2.7-0.1-4c0-0.6,0-1.1,0.1-1.6
			c0.1-0.7,0.5-1.1,1.2-1.1c0.3,0,0.7,0,1,0c0.9,0,1.8,0,2.8,0c0,0.5-0.1,0.9-0.1,1.2c-0.1,0.6-0.2,1.2-0.2,1.8c0,1,0.8,1.5,1.8,1.1
			c0.2-0.1,0.5-0.2,0.7-0.4c0.5-0.6,1-1.2,1.5-1.8c0.2-0.3,0.4-0.7,0.7-1.1c0.3,0.4,0.6,0.8,0.9,1.2C76.5,26.5,77,26.5,77.5,26.5z
			 M172.6,24.7c-0.3-0.3-0.5-0.6-0.7-0.8c-0.6-0.7-1.2-1.3-1.9-1.9c-0.8-0.7-1.7-0.7-2.5-0.1c-0.7,0.4-1.3,1-1.9,1.6
			c-0.6,0.6-1.2,0.9-2,1c-1.2,0.2-1.6,0.7-1.6,1.9c0,1.5,0.1,3.1,0.1,4.6c0,0.8-0.2,1.5-0.3,2.3c-0.4,2.5-0.7,5-1.1,7.5
			c-0.2,1.1-0.4,2.1-0.4,3.2c-0.1,0.9,0.4,1.4,1.3,1.6c0.3,0.1,0.4,0,0.4-0.4c0.1-0.9,0.2-1.8,0.3-2.7c0.4-3,0.7-5.9,1-8.9
			c0.3-2.8,1.1-5.4,2.3-7.9c0.5-1,1.3-1.6,2.3-1.9c1.3-0.3,2.5,0.1,3,1.2c0.7,1.5,0.6,3-0.2,4.4c-0.4,0.7-1.1,1.1-1.9,1
			c-0.6-0.1-1.2-0.4-1.8-0.5c-0.4-0.1-0.6-0.1-0.7,0.4c0.4,0.3,0.8,0.6,1.1,1c0.8,0.7,1.6,0.9,2.6,0.5c0.7-0.3,1.5-0.6,2.2-0.8
			c0.1-0.1,0.4-0.1,0.5,0c0.9,0.5,1.7,0.2,2.4-0.3c0.2-0.2,0.5-0.4,0.7-0.7c0.2,0.3,0.4,0.6,0.6,0.8s0.5,0.5,0.7,0.7
			c0.7,0.7,1.5,0.7,2.2,0.1c0.5-0.4,0.9-0.9,1.3-1.4c0.4-0.4,0.7-0.8,1-1.2c0.4,0.5,0.8,1,1.2,1.5c0.1,0.1,0.5,0.1,0.5,0.1
			c0.2-0.4,0.6-0.9,0.6-1.4c0.1-1.5,0-2.9-0.1-4.4c0-0.1,0-0.3,0-0.5c0.2,0.2,0.4,0.3,0.5,0.5c0.6,0.5,1.2,1,1.9,1.5
			c0.7,0.5,1.5,0.5,2.2,0.1c1.1-0.7,2-1.5,3-2.3c0,0,0.1-0.1,0.1-0.2c-0.2,0-0.4,0-0.6,0c-1,0.3-1.9,0.6-2.9,0.8
			c-0.9,0.3-1.7,0.1-2.2-0.7c-0.3-0.5-0.6-1-0.9-1.5c-0.4-0.6-0.8-1.1-1.2-1.6c-0.9,0.6-1.4,1.4-1.8,2.3c-0.8,1.8-1.7,3.5-2.5,5.3
			c-0.3,0.7-0.8,1-1.5,1c-0.5-0.7-0.3-1.5-0.2-2.3c0.1-0.6,0.4-1.3,0.3-2c-0.1-1.1-0.6-2-1.5-2.8c-0.8-0.7-1.8-0.7-2.6,0.1
			c-0.3,0.3-0.5,0.7-0.8,1C173.3,23.7,173,24.2,172.6,24.7z M151.6,27.6c-0.6-0.1-0.8,0.1-0.9,0.6c-0.1,0.5-0.2,1.1-0.4,1.6
			c-0.2,0.8-1.6,1.2-2.1,0.6c-0.4-0.5-0.7-1-0.6-1.6c0-0.3,0.1-0.7,0.1-1c0-1.7,0-3.4-0.1-5.1c0-0.8-0.4-1.3-1.1-1.5
			c-0.7-0.3-1.3,0-1.8,0.6c-0.5,0.6-1,1.2-1.4,1.9c-1.4,2.2-2.1,4.6-1.7,7.2c0.2,1.4,1.4,2.1,2.6,1.3c0.4-0.2,0.7-0.6,1.1-0.9
			c0.2-0.2,0.3-0.4,0.5-0.6c0.3,0.4,0.5,0.8,0.8,1.2c0.7,0.8,1.2,1,2.2,0.5c0.5-0.3,1-0.6,1.5-0.9c0.3-0.2,0.5-0.2,0.8,0
			c0.6,0.5,1.4,0.9,2.2,0.9c1.2,0.1,2.4,0.1,3.6,0.1c1.6,0,3.1-1.4,3.1-3c0-1.2-0.6-2.1-1.4-2.9c-0.6-0.7-1.3-1.3-1.9-2
			c-0.1-0.1-0.2-0.4-0.2-0.6c0.2-0.1,0.4-0.2,0.6-0.2c0.8,0,1.6,0,2.6,0c-0.2-0.7-0.3-1.2-0.5-1.8c-0.2-0.5-0.7-0.7-1.2-0.7
			c-1.1,0-2,0.5-2.8,1.2c-0.3,0.3-0.4,0.7-0.3,1.2c0.3,1.4,0.9,2.6,1.9,3.6c0.4,0.4,0.9,0.8,1.3,1.2c0.8,0.9,0.6,1.7-0.6,2
			c-1.3,0.3-2.6,0.3-4,0.2c-1-0.1-1.5-0.8-1.6-1.8C151.7,28.5,151.7,28.1,151.6,27.6z"/>
		<path d="M0,30c0.2-0.6,0.7-1,1.3-1.3C10.5,23.4,19,17,27.6,11c1.3-0.9,2.5-1.8,3.8-2.7c1.3-0.9,2.4-1.8,3.4-2.9
			c0.9-0.9,1.8-1.8,2.8-2.6c0.8-0.7,1.7-1.4,3-1.2c0.1,0.6,0.4,1.2,0.3,1.8c-0.8,3.7-1.6,7.4-2.3,11.1c0,0.2-0.1,0.3,0,0.5
			c0,0.3,0.3,0.4,0.6,0.2c1.1-0.9,2.2-1.7,3.3-2.6c1.3-1.1,2.3-2.4,3.2-3.8c2-2.9,4.3-5.5,6.6-8.2c0.5-0.5,1.1-0.4,1.7-0.6
			c0.1,0.6,0.2,1.3-0.3,1.8c-2,2.8-4,5.6-6.5,8c-2.4,2.3-3.8,5.2-4.7,8.3c-0.2,0.8-0.5,1.5-0.7,2.3c-0.1,0.4-0.3,0.5-0.8,0.3
			c0.5-2.1,1.1-4.2,1.7-6.5c-0.4,0.3-0.7,0.5-0.9,0.7c-0.5,0.4-1,0.8-1.5,1.2c-1.7,1.1-2.7,2.7-3,4.7c-0.3,1.6-0.7,3.2-1.1,4.8
			c-0.1,0.4-0.2,0.8-0.3,1.1c0,0.1-0.2,0.4-0.2,0.3c-0.2-0.1-0.4-0.2-0.5-0.3c-0.3-0.6-0.3-1.3-0.2-1.9c0.2-0.9,0.5-1.8,0.8-2.8
			c0.1-0.6,0.1-1.1,0.2-1.7c-0.1,0-0.1-0.1-0.2-0.1c-0.4,0.2-0.8,0.4-1.1,0.7c-2.9,1.9-5.7,3.8-8.6,5.7c-0.9,0.6-2,0.8-3.1,1
			c0,0-0.1-0.1-0.1-0.1c0.1-0.1,0.2-0.3,0.4-0.4c1.9-1.3,3.9-2.6,5.8-3.9c1.7-1.2,3.3-2.3,5-3.5c1.9-1.3,2.8-3.2,3.2-5.4
			c0.5-2.8,1.1-5.6,1.6-8.4C38.9,5.4,38.9,5,39,4.5c-5.8,4.3-11.4,8.6-17.3,12.7C15.9,21.2,9.9,25,4,28.9c0.8,0,1.7,0,2.6,0
			c2.2,0,4.4,0,6.7,0c1.1,0,2.2,0.1,3.3,0.2c2.1,0.3,4.2,0.5,6.2,0.9c5,1,9.6,3.1,13.8,6.1c0.1,0.1,0.2,0.1,0.4,0.2
			c0.1-0.5,0.3-0.9,0.4-1.3c0.3-1.1,0.5-2.1,0.8-3.2c0-0.1,0-0.1,0-0.1c0-0.3,0.3-0.4,0.5-0.3c0.1,0.1,0.2,0.3,0.2,0.4
			c-0.1,0.9-0.3,1.9-0.5,2.8c-0.4,1.6-0.2,3,1,4.4c1.2,1.4,2,3.1,2.2,5c0.2,1.6-0.1,3.1-0.8,4.4c-0.3,0.6-1,0.9-1.6,1.4
			c-0.1,0.1-0.4,0-0.5,0c-0.6-0.3-1-0.8-1.1-1.5c-0.3-2.3-0.6-4.6-0.8-6.9c0-0.4,0.1-0.8,0.2-1.2c0.2-1.8-0.7-3.1-2.1-4.1
			c-2.7-1.8-5.6-3.2-8.7-4.1c-2.6-0.8-5.3-1.3-8.1-1.5c-2.3-0.2-4.6-0.3-6.9-0.4c-2.5-0.1-5,0.2-7.4,0.8c-0.7,0.2-1.5,0.1-2.3,0.1
			C0.7,31.1,0.3,30.6,0,30C0,30.1,0,30.1,0,30z M37.9,39.3c-0.4,2.9-0.4,5.8,1.1,8.5c0.3-0.7,0.6-1.2,0.8-1.8c0.5-1.5,0.8-3,0.1-4.6
			C39.5,40.6,38.8,39.9,37.9,39.3z"/>
		<path d="M137.7,19.8c-0.6,0-0.6-0.3-0.5-0.7c0.4-1.5,0.8-3.1,1.2-4.6c0-0.1,0-0.1,0-0.3c-0.5,0.4-0.9,0.7-1.3,1.1
			c-0.5,0.4-1,0.8-1.5,1.1c-1.4,1-2.2,2.3-2.5,4.1c-0.4,1.9-0.9,3.8-1.4,5.8c0,0.1-0.1,0.3-0.1,0.4c-0.1,0.1-0.2,0.3-0.3,0.3
			c-0.1,0-0.4-0.2-0.4-0.3c-0.1-0.6-0.2-1.2-0.1-1.8c0.1-0.8,0.4-1.6,0.6-2.3c0.1-0.6,0.2-1.2,0.2-1.8c0-0.2-0.1-0.3-0.1-0.6
			c-0.5,0.3-1,0.6-1.4,0.9c-2.8,1.9-5.7,3.8-8.5,5.7c-0.7,0.5-1.5,0.6-2.3,0.8c-0.1,0-0.2,0-0.3,0c0,0-0.1-0.1-0.2-0.1
			c0.2-0.2,0.4-0.3,0.6-0.4c3-2,6-4,8.9-6.1c0.6-0.4,1.2-0.9,1.8-1.4c1.7-1.3,2.6-3.2,2.9-5.3c0.5-2.8,1-5.5,1.5-8.2
			c0.1-0.5,0.1-1,0.1-1.5c-0.1,0-0.1,0-0.2,0c-0.1,0-0.1,0.1-0.2,0.1c-11.1,8.7-22.7,16.8-34.7,24.2c-0.1,0-0.1,0.1-0.2,0.2
			c0.2,0,0.3,0.1,0.4,0.1c2.6-0.1,5.2-0.2,7.8-0.2c1.8,0,3.6,0.2,5.3,0.4c3.2,0.3,6.3,0.9,9.3,1.9c3.5,1.1,6.7,2.8,9.7,4.9
			c0.2,0.1,0.3,0.2,0.6,0.4c0.3-1.3,0.7-2.5,1-3.7c0.2,0,0.4,0.1,0.7,0.1c-0.1,0.6-0.2,1.2-0.3,1.9c-0.1,0.7-0.2,1.3-0.2,2
			c0,0.8,0.4,1.5,0.9,2.1c1.1,1.4,1.9,2.9,2.3,4.7c0.3,1.7,0.1,3.4-0.6,4.9c-0.3,0.6-1,1-1.5,1.4c-0.1,0.1-0.5,0-0.7-0.1
			c-0.5-0.3-0.9-0.8-1-1.5c-0.1-0.8-0.2-1.5-0.3-2.3c0-0.2,0-0.5,0.3-0.5c0.3-0.1,0.5,0.1,0.6,0.4c0.2,0.6,0.5,1.3,0.8,2
			c0.6-0.9,0.9-1.7,1.1-2.6c0.3-1.1,0.4-2.2,0.1-3.3c-0.3-1-0.9-1.8-1.7-2.4c-0.1-0.1-0.3-0.2-0.5-0.3c-0.1,0.5-0.1,0.9-0.2,1.3
			c0,0-0.1,0-0.1,0c-0.8-0.2-0.8-0.2-0.7-1c0-1.6-0.9-2.6-2.1-3.5c-2.6-1.8-5.5-3.1-8.6-4c-2.3-0.7-4.8-1.2-7.2-1.4
			c-2.5-0.2-5.1-0.4-7.6-0.5c-2.6-0.1-5.2,0.2-7.8,0.8c-0.7,0.1-1.4,0.2-2.1,0c-0.4-0.1-0.8-0.5-1.2-0.8c-0.1-0.1-0.1-0.5,0-0.6
			c0.3-0.3,0.6-0.7,0.9-0.9c2.8-1.8,5.8-3.4,8.5-5.3c7.4-5.1,14.7-10.3,22-15.4c1.4-1,2.6-2.2,3.8-3.3c1-1,2.1-1.9,3.2-2.8
			c0.4-0.3,1-0.3,1.5-0.5c0.4-0.1,0.4,0.1,0.6,0.4c0.4,0.9,0.1,1.8-0.1,2.7c-0.7,3.2-1.4,6.5-2.1,9.7c0,0.2-0.1,0.4,0,0.5
			c0,0.4,0.4,0.5,0.7,0.3c0.1-0.1,0.2-0.2,0.3-0.3c0.8-0.6,1.5-1.3,2.3-1.8c1.4-1,2.4-2.2,3.4-3.6c2.1-3.1,4.5-6,7.1-8.8
			c0.4-0.5,0.9-0.7,1.5-0.6c0.1,0,0.3,0.2,0.3,0.3c0.1,0.6,0,1.1-0.4,1.6c-0.6,0.8-1.2,1.6-1.8,2.5c0.9,0.4,1.6,0.7,2.4,1
			c2.7,1.1,5.6,1.8,8.5,2.1c2.6,0.2,5.1,0.6,7.7,0.8c5.8,0.5,11.6,0.6,17.4,0.4c2.1-0.1,4.2-0.1,6.2-0.2c2.7-0.1,5.3-0.3,8-0.4
			c1-0.1,2,0,3.1,0c0,0.3,0,0.8,0,1.2c-1.5,0.1-3,0.2-4.5,0.3c-2.8,0.1-5.6,0.3-8.3,0.4c-2.1,0.1-4.2,0.2-6.3,0.2c-4,0-8,0.1-12,0
			c-2.5-0.1-4.9-0.3-7.4-0.4c-0.5,0-0.9,0-1.4,0c-0.8,0-1.2,0.4-1.2,1.2c0,1.7,0.1,3.3,0.1,5c0,0.7,0,1.4-0.5,2
			c-0.1,0.1-0.1,0.1-0.2,0.2c-0.6-0.4-1.1-1-1.2-1.7c-0.7-2.9-2.2-5.3-4.7-7.1c-1.3-0.9-2.8-1.4-4.2-1.9c-1-0.3-1.9-0.7-3-1.1
			c-0.5,0.6-1,1.2-1.5,1.8c-1,1.1-2.1,2.2-3.1,3.4c-1.6,1.9-2.5,4.1-3.2,6.4C138.1,18.5,137.9,19.1,137.7,19.8z M156,9.4
			c0,0.1-0.1,0.1-0.1,0.2c0.7,0.9,1.4,1.8,2.1,2.7c0.1,0,0.1,0,0.2,0c0.1-0.6,0.2-1.1,0.3-1.7c0.1-0.8-0.3-1.2-1.1-1.3
			C156.8,9.3,156.4,9.4,156,9.4z"/>
		<path d="M77.5,26.5c-0.5,0-1,0-1.3-0.4c-0.3-0.4-0.6-0.7-0.9-1.2c-0.2,0.4-0.4,0.8-0.7,1.1c-0.5,0.6-1,1.2-1.5,1.8
			c-0.2,0.2-0.4,0.3-0.7,0.4c-0.9,0.4-1.8-0.1-1.8-1.1c0-0.6,0.1-1.2,0.2-1.8c0-0.4,0.1-0.7,0.1-1.2c-0.9,0-1.8,0-2.8,0
			c-0.3,0-0.7,0-1,0c-0.7,0-1.2,0.3-1.2,1.1c-0.1,0.6-0.1,1.1-0.1,1.6c0,1.3,0,2.7,0.1,4c0,0.1,0,0.3,0,0.4
			c-0.1,0.1-0.2,0.3-0.2,0.3c-0.1,0-0.4-0.1-0.4-0.2c-0.2-0.7-0.4-1.4-0.5-2.1c-0.1-1.1-0.1-2.3-0.1-3.5c0-0.3-0.1-0.6-0.1-1.1
			c-0.5,0.2-1,0.4-1.4,0.6c-0.7,0.5-1.3,1-2,1.5c-0.8,0.6-1.6,1.1-2.7,1.3c-1.2,0.2-2.3-0.3-2.9-1.3c-0.2-0.4-0.4-0.8-0.5-1.2
			c-0.3-1.1-0.8-2-1.5-2.9c-0.7-0.8-1.4-1.6-2.1-2.4c0-0.1-0.1-0.1-0.2-0.2c-0.2,0.9-0.3,1.7-0.5,2.5c-0.5,2.4-1.1,4.7-1.5,7.1
			c-0.1,0.6-0.5,1.1-1,1.5c-0.4-0.4-0.9-0.7-0.8-1.4c0.2-2.3,0.3-4.6,0.5-6.9c0-0.2,0.1-0.4,0.2-0.4c1.1-0.7,1.6-1.8,1.9-3
			c0-0.2,0.1-0.3,0.1-0.5c0.3-1,1.2-1.3,2-0.5c0.9,0.8,1.7,1.7,2.6,2.6c0.2,0.2,0.3,0.3,0.5,0.4c0.1-0.2,0.2-0.3,0.3-0.4
			c0.6-1,1.2-2,1.9-2.9c0.3-0.4,0.7-0.6,1.1-0.9c0.7,0.9,0.8,1.8,0.3,2.7c-0.5,0.9-1,1.7-1.4,2.6c-0.3,0.6-0.5,1.2-0.7,1.8
			c-0.3,1.1,0.5,1.7,1.4,1.8c0.6,0,1.2-0.1,1.7-0.4c2.1-1.1,3.7-2.6,4.9-4.6c0.4-0.7,0.5-1.4,0.6-2.2c0.2-2,0.4-4,0.6-6
			c0.1-0.9,0.3-1.8,1-2.5c0.1-0.1,0.1-0.1,0.2-0.2c0,0,0.1,0,0.2-0.1c0.2,0.5,0.6,1,0.7,1.6c0.5,3,0.3,6-1.1,8.8
			c-0.7,1.4-0.3,1.2,0.7,1.5c1.8,0.4,3.4-0.2,4.5-1.8c0.2-0.2,0.3-0.5,0.5-0.7c0.3-0.3,0.7-0.3,0.9,0c0.4,0.7,0.9,1.2,1.8,1.3
			c0.6,0.1,0.8,0.7,0.9,1.3c0.2,1,0.5,1.9,1,2.8C77.6,25.4,77.6,25.9,77.5,26.5z M73.6,22.1c-0.4,0.9-0.7,1.9-1.1,2.8
			c0.3,0.1,0.5,0.2,0.8,0.3c0.3-1,0.6-1.9,0.9-2.9C74,22.3,73.8,22.2,73.6,22.1z"/>
		<path d="M172.6,24.7c0.4-0.5,0.7-1,1.1-1.5c0.2-0.3,0.5-0.7,0.8-1c0.7-0.7,1.8-0.8,2.6-0.1c0.8,0.7,1.4,1.7,1.5,2.8
			c0.1,0.6-0.2,1.3-0.3,2c-0.1,0.8-0.4,1.6,0.2,2.3c0.7-0.1,1.2-0.4,1.5-1c0.8-1.8,1.7-3.5,2.5-5.3c0.4-0.9,0.9-1.7,1.8-2.3
			c0.4,0.5,0.9,1.1,1.2,1.6c0.3,0.5,0.6,1,0.9,1.5c0.6,0.8,1.3,1,2.2,0.7c1-0.3,1.9-0.6,2.9-0.8c0.1,0,0.3,0,0.6,0
			c-0.1,0.1-0.1,0.2-0.1,0.2c-1,0.8-2,1.6-3,2.3c-0.7,0.4-1.5,0.4-2.2-0.1c-0.7-0.4-1.3-1-1.9-1.5c-0.2-0.1-0.3-0.3-0.5-0.5
			c0,0.2,0,0.4,0,0.5c0,1.5,0.1,3,0.1,4.4c0,0.5-0.4,0.9-0.6,1.4c0,0.1-0.4,0-0.5-0.1c-0.4-0.5-0.8-1-1.2-1.5
			c-0.3,0.3-0.6,0.8-1,1.2c-0.4,0.5-0.8,1-1.3,1.4c-0.8,0.6-1.5,0.6-2.2-0.1c-0.2-0.2-0.5-0.5-0.7-0.7c-0.2-0.3-0.4-0.5-0.6-0.8
			c-0.3,0.2-0.5,0.5-0.7,0.7c-0.7,0.6-1.5,0.8-2.4,0.3c-0.1-0.1-0.4-0.1-0.5,0c-0.7,0.3-1.5,0.5-2.2,0.8c-1,0.4-1.8,0.2-2.6-0.5
			c-0.4-0.3-0.7-0.6-1.1-1c0.1-0.4,0.3-0.5,0.7-0.4c0.6,0.2,1.2,0.4,1.8,0.5c0.9,0.2,1.5-0.2,1.9-1c0.8-1.4,0.9-2.9,0.2-4.4
			c-0.5-1.1-1.7-1.5-3-1.2c-1.1,0.3-1.8,0.9-2.3,1.9c-1.2,2.5-2,5.2-2.3,7.9c-0.3,3-0.7,5.9-1,8.9c-0.1,0.9-0.2,1.8-0.3,2.7
			c0,0.3-0.1,0.4-0.4,0.4c-0.9-0.2-1.4-0.7-1.3-1.6c0.1-1.1,0.3-2.1,0.4-3.2c0.4-2.5,0.8-5,1.1-7.5c0.1-0.8,0.3-1.5,0.3-2.3
			c0-1.5-0.1-3.1-0.1-4.6c0-1.2,0.4-1.7,1.6-1.9c0.8-0.1,1.4-0.4,2-1c0.6-0.6,1.2-1.1,1.9-1.6c0.8-0.6,1.8-0.5,2.5,0.1
			c0.7,0.6,1.3,1.3,1.9,1.9C172.1,24.1,172.3,24.3,172.6,24.7z M173.5,27.3c0.1,0.3,0.2,0.6,0.3,1c0.1,0.3,0.4,0.3,0.6,0.1
			c0.4-0.4,0.9-0.7,1-1.2c0.4-0.9,0.5-1.9,0.8-2.8c0.1-0.3-0.2-0.5-0.5-0.4C174.4,24.7,173.8,25.8,173.5,27.3z"/>
		<path d="M151.6,27.6c0,0.4,0.1,0.9,0.1,1.3c0.1,1,0.6,1.7,1.6,1.8c1.3,0.2,2.7,0.1,4-0.2c1.2-0.3,1.4-1.1,0.6-2
			c-0.4-0.4-0.9-0.8-1.3-1.2c-1-1-1.6-2.2-1.9-3.6c-0.1-0.4,0-0.8,0.3-1.2c0.8-0.7,1.6-1.2,2.8-1.2c0.6,0,1,0.2,1.2,0.7
			c0.2,0.5,0.3,1.1,0.5,1.8c-1,0-1.8,0-2.6,0c-0.2,0-0.4,0.1-0.6,0.2c0.1,0.2,0.1,0.4,0.2,0.6c0.6,0.7,1.3,1.3,1.9,2
			c0.8,0.8,1.4,1.7,1.4,2.9c0,1.6-1.5,3-3.1,3c-1.2,0-2.4,0-3.6-0.1c-0.8-0.1-1.6-0.4-2.2-0.9c-0.3-0.3-0.5-0.2-0.8,0
			c-0.5,0.3-0.9,0.6-1.5,0.9c-1,0.5-1.5,0.4-2.2-0.5c-0.3-0.4-0.5-0.7-0.8-1.2c-0.2,0.2-0.3,0.4-0.5,0.6c-0.3,0.3-0.6,0.7-1.1,0.9
			c-1.2,0.7-2.4,0.1-2.6-1.3c-0.4-2.6,0.2-5,1.7-7.2c0.4-0.7,0.9-1.3,1.4-1.9c0.5-0.6,1-0.8,1.8-0.6c0.7,0.3,1.1,0.8,1.1,1.5
			c0.1,1.7,0.1,3.4,0.1,5.1c0,0.3-0.1,0.7-0.1,1c-0.1,0.6,0.1,1.2,0.6,1.6c0.5,0.5,1.9,0.1,2.1-0.6c0.1-0.5,0.2-1,0.4-1.6
			C150.9,27.8,151.1,27.6,151.6,27.6z M143.5,30.2c1.9-1.9,2.2-4.3,2.8-6.7C144.2,24.2,142.4,28.1,143.5,30.2z"/>
		<path class="st0" d="M37.9,39.3c1,0.5,1.6,1.2,2,2.2c0.6,1.5,0.4,3.1-0.1,4.6c-0.2,0.6-0.5,1.1-0.8,1.8
			C37.4,45.1,37.4,42.3,37.9,39.3z"/>
		<path class="st0" d="M156,9.4c0.4-0.1,0.8-0.2,1.2-0.1c0.8,0,1.2,0.4,1.1,1.3c0,0.6-0.2,1.1-0.3,1.7c-0.1,0-0.1,0-0.2,0
			c-0.7-0.9-1.4-1.8-2.1-2.7C155.9,9.6,156,9.5,156,9.4z"/>
		<path class="st0" d="M73.6,22.1c0.2,0.1,0.4,0.1,0.6,0.2c-0.3,1-0.6,1.9-0.9,2.9c-0.3-0.1-0.5-0.2-0.8-0.3
			C72.9,24,73.2,23.1,73.6,22.1z"/>
		<path class="st0" d="M173.5,27.3c0.4-1.4,1-2.6,2.2-3.3c0.2-0.1,0.5,0.1,0.5,0.4c-0.2,1-0.4,1.9-0.8,2.9c-0.2,0.5-0.7,0.8-1,1.2
			c-0.2,0.2-0.4,0.2-0.6-0.1C173.7,27.9,173.6,27.6,173.5,27.3z"/>
		<path class="st0" d="M143.5,30.2c-1.1-2,0.7-6,2.8-6.7C145.7,25.9,145.4,28.3,143.5,30.2z"/>
	</g>
</g>
</svg>
