<?xml version="1.0" encoding="utf-8"?>
<!-- Generator: Adobe Illustrator 24.3.0, SVG Export Plug-In . SVG Version: 6.00 Build 0)  -->
<svg version="1.1" id="Ebene_1" xmlns="http://www.w3.org/2000/svg" xmlns:xlink="http://www.w3.org/1999/xlink" x="0px" y="0px"
	 viewBox="0 0 210 297" style="enable-background:new 0 0 210 297;" xml:space="preserve">
<style type="text/css">
	.st0{fill:#FFFFFF;}
</style>
<g>
	<g>
		<path class="st0" d="M197.28,261.12c-61.77,0-123.53,0-185.28,0c0-75.05,0-150.09,0-225.12c61.77,0,123.53,0,185.28,0
			C197.28,111.05,197.28,186.09,197.28,261.12z M30.5,255.67c0.82,0.27,1.05,0.14,1.23-0.5c0.06-0.23,0.27-0.49,0.48-0.6
			c0.95-0.5,1.91-1,2.91-1.39c0.43-0.17,1.01,0.03,1.42-0.16c1.2-0.54,2.32-1.26,3.53-1.76c1.75-0.73,3.56-1.32,5.34-1.99
			c1.88-0.71,3.75-1.44,5.62-2.17c0.25-0.1,0.5-0.24,0.72-0.41c0.48-0.36,0.88-0.86,1.41-1.11c1.4-0.66,2.89-1.14,4.25-1.85
			c1.06-0.56,1.21,0.08,1.46,0.79c0.19,0.55,0.39,1.09,0.62,1.62c0.32,0.76,0.64,1.52,1.02,2.24c0.13,0.23,0.45,0.45,0.71,0.5
			c0.14,0.03,0.44-0.28,0.52-0.5c0.72-2.02,1.58-4.02,2.03-6.1c0.3-1.41,1.14-1.98,2.23-2.47c1.71-0.77,3.46-1.43,5.14-2.26
			c3.21-1.59,6.4-3.22,9.56-4.92c1.74-0.93,3.33-1.5,5.35-0.51c2.06,1.01,4.38,1.49,6.52,2.35c1.45,0.59,2.77,1.5,4.2,2.14
			c2.38,1.07,4.79,2.07,7.2,3.04c0.59,0.24,1.27,0.28,1.92,0.41c0.18,0.19,0.35,0.54,0.63,0.66c2.41,1.08,4.84,2.1,7.24,3.19
			c3.04,1.38,6.07,2.79,9.09,4.21c1.95,0.92,3.87,1.92,5.84,2.8c1.05,0.47,2.16,0.8,3.27,1.11c0.28,0.08,0.65-0.15,0.97-0.24
			c0.03-0.13,0.06-0.27,0.09-0.4c-13.26-8.35-26.52-16.7-39.84-25.09c0.19-0.12,0.37-0.28,0.58-0.37
			c5.28-2.41,10.57-4.82,15.85-7.23c5.66-2.58,11.31-5.19,16.98-7.75c1.77-0.8,3.57-1.87,5.43-2.07c3.23-0.34,6.53,0.06,9.78-0.14
			c2.16-0.13,4.48,1,6.49-0.66c0.05-0.04,0.16-0.02,0.23-0.03c1.33-0.22,2.01-0.96,2.06-2.33c0.03-0.83,0.02-1.66,0.02-2.5
			c0.01-3.08,0-3.09,2.84-4.16c3.84-1.45,7.71-2.83,11.54-4.32c1.21-0.47,2.46-1.01,3.46-1.82c1.04-0.84,1.79-2.04,2.72-3.15
			c-2.22-2.38-4.29-4.62-6.39-6.84c-0.43-0.45-0.95-0.81-1.37-1.27c-0.48-0.53-0.76-1.31-1.33-1.67c-2.31-1.48-4.71-2.82-7.04-4.28
			c-0.33-0.21-0.58-0.77-0.61-1.18c-0.17-2.41,0.44-4.76,0.7-7.13c0.54-5.07,1.76-9.96,3.4-14.72c1.98-5.74,3.4-11.6,4.64-17.48
			c1.54-0.44,3.11-0.99,4.72-1.35c3.52-0.77,5.72-3.01,6.89-6.26c0.26-0.73,0.11-2-0.38-2.55c-3.22-3.61-7.09-5.94-12.2-5.39
			c-0.27,0.03-0.56-0.03-0.83-0.05c-1.88-0.15-3.75-0.43-5.63-0.42c-2.08,0.02-4.18,0.31-6.04,1.33c-1.06,0.58-2.43,1-2.46,2.62
			c-0.01,0.54-0.23,0.86-0.9,0.91c-0.43,0.03-0.87,0.38-1.23,0.67c-0.77,0.63-1.48,1.32-2.22,1.98c-0.12-0.08-0.24-0.16-0.36-0.24
			c0.08-1.54,0.21-3.07,0.22-4.61c0.06-8.02,0.07-16.04,0.15-24.07c0-0.34,0.38-0.85,0.71-0.99c1.05-0.46,2.15-0.8,3.24-1.17
			c1.16-0.39,2.31-0.84,3.5-1.1c2.76-0.59,5.41-1.43,7.89-2.78c1.8-0.99,3.6-2,5.48-2.82c1.52-0.66,3.19-0.98,4.75-1.55
			c1.63-0.59,3.22-1.28,4.81-1.96c1.21-0.52,2.41-1.09,3.58-1.69c0.22-0.11,0.45-0.49,0.44-0.73c-0.04-0.82,0.47-1.07,1.1-1.34
			c1.87-0.79,3.72-1.66,5.59-2.47c1.69-0.73,2.1-2.36,2.72-3.84c0.07-0.17-0.21-0.5-0.35-0.81c-1.29,1.32-1.52,1.34-2.66,0.26
			c2.43-2.43,4.18-5.2,4.15-8.75c-0.04,0.02-0.25,0.12-0.59,0.29c-0.05-0.65-0.24-1.24-0.1-1.72c0.71-2.36,1.61-4.63,3.45-6.41
			c1.19-1.15,2.15-2.49,2.57-4.16c0.17-0.67,0.53-1.3,0.74-1.97c0.07-0.23,0.04-0.59-0.11-0.76c-0.13-0.15-0.51-0.24-0.71-0.17
			c-2.04,0.78-4.06,1.61-6.1,2.42c-0.57,0.23-1.16,0.41-1.74,0.63c-0.76,0.3-1.96,0.45-2.16,0.98c-0.23,0.61-0.51,0.78-0.96,0.92
			c-1.06,0.34-2,0.87-3.24,0.88c-1.11,0.01-2.18,0.95-3.32,1.34c-1.54,0.53-3.12,0.92-4.69,1.38c-1.82,0.53-3.64,1.06-5.45,1.61
			c-0.22,0.07-0.4,0.23-0.6,0.36c-0.45,0.29-0.85,0.68-1.34,0.86c-4.17,1.56-8.36,3.07-12.53,4.62c-2.45,0.91-4.89,1.86-7.49,2.86
			c0-2.05,0.02-3.99,0-5.94c-0.08-6.9-0.14-13.8-0.28-20.7c-0.04-1.95-0.29-3.9-0.54-5.84c-0.06-0.45-0.51-1.18-0.81-1.19
			c-0.68-0.04-1.11,0.48-1.08,1.28c0.1,2.46,0.12,4.92,0.26,7.38c0.13,2.19,0.48,4.36,0.54,6.55c0.15,5.7,0.17,11.4,0.31,17.1
			c0.04,1.53-0.09,2.76-1.96,2.95c-0.18,0.02-0.35,0.19-0.53,0.27c-1.38,0.59-2.77,1.17-4.29,1.81c0-0.71,0.01-1.23,0-1.74
			c-0.09-6.82-0.15-13.64-0.29-20.46c-0.04-1.95-0.29-3.9-0.55-5.84c-0.06-0.43-0.55-1.13-0.85-1.14c-0.7-0.01-1.07,0.55-1.04,1.32
			c0.08,2.34,0.11,4.68,0.2,7.02c0.27,6.96,0.57,13.93,0.81,20.89c0.01,0.37-0.4,0.97-0.75,1.12c-3.78,1.6-7.56,3.2-11.39,4.66
			c-6.07,2.31-12.19,4.51-18.28,6.76c-7.3,2.69-14.58,5.43-21.9,8.04c-3.72,1.33-7.52,2.44-11.29,3.62
			c-2.05,0.64-4.17,1.1-6.15,1.91c-1.05,0.43-1.97,1.34-2.73,2.22c-0.25,0.29-0.65,1.07,0.01,1.81c1.07,1.21,1.88,2.65,2.85,3.96
			c0.82,1.12,1.75,2.16,2.56,3.28c0.47,0.65,0.72,1.47,1.23,2.07c0.61,0.72,1.42,1.27,2.12,1.92c2.18,2.02,4.55,3.73,7.58,4.12
			c1.39,0.18,2.82,0.03,4.21,0.03c0,0.57,0.12,1.18-0.02,1.73c-0.39,1.47-0.81,2.96-1.39,4.36c-0.61,1.46-1.29,2.93-2.17,4.24
			c-1.58,2.38-3.29,4.66-4.15,7.43c-0.56,1.79-1.12,3.58-1.71,5.36c-0.5,1.52-1.02,3.03-1.59,4.53c-0.36,0.96-0.93,1.85-1.23,2.83
			c-0.58,1.88-1.02,3.81-1.54,5.71c-0.09,0.34-0.29,0.65-0.43,0.98c-0.54,1.29-1.17,2.54-1.57,3.87c-0.35,1.15-0.27,2.43-0.68,3.55
			c-0.89,2.43-2.01,4.77-2.97,7.17c-0.84,2.1-1.59,4.24-2.37,6.36c-0.41,1.11-0.65,2.31-1.21,3.34c-1.96,3.55-3.11,7.35-3.89,11.29
			c-0.3,1.55-0.59,3.1-1.04,4.61c-0.35,1.18-0.94,2.3-1.45,3.53c-0.52-0.28-1.12-0.57-1.7-0.92c-4.89-2.91-9.71-5.94-14.68-8.72
			c-4.33-2.43-8.81-4.59-13.26-6.81c-0.46-0.23-1.35-0.22-1.68,0.07c-0.59,0.53-0.21,1.79,0.56,2.25c0.89,0.53,1.83,0.95,2.73,1.46
			c1.86,1.06,3.67,2.22,5.56,3.23c3.22,1.71,6.52,3.3,9.74,5.02c2.27,1.22,4.46,2.57,6.68,3.87c1.51,0.88,3.02,1.76,4.5,2.69
			c0.29,0.18,0.67,0.65,0.62,0.9c-0.25,1.09-0.69,2.13-0.97,3.21c-0.54,2.08-2.07,4.06-0.68,6.36c0.13,0.22-0.02,0.61-0.04,0.97
			c-1.93-0.83-3.78-1.62-5.64-2.41c-4.42-1.9-8.8-3.87-13.25-5.68c-3.94-1.6-7.94-3.06-11.94-4.5c-1.61-0.58-3.27-1-4.93-1.42
			c-1.1-0.28-1.49,0.04-1.48,1.03c0.01,0.79,0.29,1.37,1.11,1.63c0.98,0.32,1.94,0.68,2.9,1.06c1.95,0.77,3.86,1.63,5.83,2.34
			c3.32,1.19,6.7,2.24,10.01,3.46c2.67,0.99,5.27,2.15,7.91,3.24c0.77,0.32,1.55,0.6,2.31,0.93c2.07,0.89,4.13,1.8,6.37,2.78
			c-0.21,0.75-0.52,1.52-0.62,2.32c-0.13,1.15-0.53,2.03-1.71,2.4c-0.51,0.16-1.19,0.18-1.49,0.52c-0.71,0.79-1.64,0.97-2.52,1.36
			c-1.14,0.51-2.16,1.28-3.21,1.97c-0.13,0.08-0.19,0.36-0.18,0.54c0.09,0.96-0.56,1.28-1.27,1.65c-2.06,1.05-4.1,2.16-6.15,3.24
			c-1.65,0.86-2.21,2.51-2.89,4.05c-0.1,0.22,0.19,0.61,0.33,1.04c1.29-1.6,1.76-1.67,2.75-0.64c-0.24,0.29-0.48,0.56-0.7,0.85
			c-0.72,0.97-1.3,2.08-2.16,2.9c-1.54,1.48-1.07,3.5-1.69,5.22c-0.03,0.08,0.06,0.21,0.09,0.31c0.17,0.58,0.61,1.24,0.47,1.73
			c-0.78,2.64-1.97,5.08-3.87,7.12c-1.32,1.41-2.51,2.9-3.03,4.83c-0.2,0.74-0.65,1.42-0.9,2.16c-0.08,0.24,0.05,0.61,0.19,0.85
			c0.07,0.12,0.45,0.17,0.61,0.09c2.28-1.1,4.55-2.23,6.82-3.35c0.56-0.27,1.1-0.73,1.68-0.78
			C30.28,256.55,30.29,256.65,30.5,255.67z M134.19,252.44c-0.06,0.1-0.12,0.19-0.18,0.29c0.7,1,1.22,1.26,2.28,0.97
			C135.49,253.22,134.84,252.83,134.19,252.44z"/>
		<path d="M30.5,255.67c-0.21,0.98-0.22,0.88-1.34,0.96c-0.58,0.04-1.12,0.5-1.68,0.78c-2.27,1.12-4.54,2.25-6.82,3.35
			c-0.16,0.08-0.54,0.03-0.61-0.09c-0.15-0.24-0.28-0.61-0.19-0.85c0.25-0.74,0.7-1.41,0.9-2.16c0.53-1.93,1.72-3.42,3.03-4.83
			c1.91-2.04,3.1-4.48,3.87-7.12c0.14-0.49-0.3-1.15-0.47-1.73c-0.03-0.11-0.12-0.23-0.09-0.31c0.62-1.71,0.14-3.74,1.69-5.22
			c0.86-0.82,1.44-1.93,2.16-2.9c0.22-0.29,0.46-0.56,0.7-0.85c-1-1.03-1.46-0.96-2.75,0.64c-0.15-0.43-0.43-0.82-0.33-1.04
			c0.69-1.54,1.24-3.19,2.89-4.05c2.05-1.07,4.09-2.19,6.15-3.24c0.71-0.36,1.36-0.69,1.27-1.65c-0.02-0.18,0.05-0.46,0.18-0.54
			c1.05-0.69,2.08-1.46,3.21-1.97c0.89-0.39,1.81-0.57,2.52-1.36c0.31-0.34,0.98-0.36,1.49-0.52c1.18-0.37,1.58-1.24,1.71-2.4
			c0.09-0.8,0.41-1.57,0.62-2.32c-2.24-0.98-4.3-1.89-6.37-2.78c-0.76-0.33-1.54-0.61-2.31-0.93c-2.64-1.08-5.24-2.25-7.91-3.24
			c-3.31-1.23-6.68-2.27-10.01-3.46c-1.97-0.71-3.88-1.57-5.83-2.34c-0.96-0.38-1.92-0.74-2.9-1.06c-0.82-0.27-1.1-0.84-1.11-1.63
			c-0.01-0.99,0.38-1.31,1.48-1.03c1.66,0.43,3.32,0.84,4.93,1.42c4,1.45,8,2.9,11.94,4.5c4.45,1.81,8.84,3.78,13.25,5.68
			c1.85,0.8,3.71,1.59,5.64,2.41c0.02-0.36,0.17-0.75,0.04-0.97c-1.39-2.3,0.14-4.28,0.68-6.36c0.28-1.08,0.72-2.12,0.97-3.21
			c0.06-0.25-0.32-0.71-0.62-0.9c-1.48-0.93-2.99-1.81-4.5-2.69c-2.22-1.3-4.42-2.66-6.68-3.87c-3.22-1.72-6.51-3.31-9.74-5.02
			c-1.89-1.01-3.7-2.16-5.56-3.23c-0.9-0.51-1.84-0.94-2.73-1.46c-0.78-0.46-1.15-1.72-0.56-2.25c0.33-0.3,1.22-0.3,1.68-0.07
			c4.45,2.21,8.93,4.38,13.26,6.81c4.96,2.78,9.79,5.81,14.68,8.72c0.57,0.34,1.18,0.64,1.7,0.92c0.51-1.23,1.1-2.34,1.45-3.53
			c0.45-1.51,0.74-3.07,1.04-4.61c0.77-3.95,1.93-7.75,3.89-11.29c0.57-1.02,0.8-2.23,1.21-3.34c0.78-2.12,1.53-4.26,2.37-6.36
			c0.96-2.4,2.08-4.74,2.97-7.17c0.41-1.12,0.33-2.4,0.68-3.55c0.4-1.33,1.03-2.59,1.57-3.87c0.14-0.33,0.34-0.64,0.43-0.98
			c0.52-1.9,0.97-3.83,1.54-5.71c0.3-0.98,0.86-1.87,1.23-2.83c0.57-1.5,1.08-3.01,1.59-4.53c0.59-1.78,1.16-3.57,1.71-5.36
			c0.86-2.77,2.57-5.06,4.15-7.43c0.87-1.32,1.56-2.78,2.17-4.24c0.58-1.41,0.99-2.89,1.39-4.36c0.15-0.54,0.02-1.16,0.02-1.73
			c-1.39,0-2.82,0.15-4.21-0.03c-3.03-0.39-5.4-2.1-7.58-4.12c-0.7-0.65-1.51-1.2-2.12-1.92c-0.51-0.6-0.76-1.42-1.23-2.07
			c-0.81-1.12-1.74-2.17-2.56-3.28c-0.97-1.31-1.78-2.75-2.85-3.96c-0.66-0.74-0.26-1.52-0.01-1.81c0.76-0.88,1.68-1.79,2.73-2.22
			c1.98-0.81,4.1-1.27,6.15-1.91c3.77-1.18,7.57-2.29,11.29-3.62c7.32-2.61,14.6-5.35,21.9-8.04c6.1-2.25,12.21-4.45,18.28-6.76
			c3.83-1.46,7.61-3.06,11.39-4.66c0.36-0.15,0.76-0.74,0.75-1.12c-0.24-6.97-0.54-13.93-0.81-20.89c-0.09-2.34-0.11-4.68-0.2-7.02
			c-0.03-0.77,0.34-1.33,1.04-1.32c0.3,0.01,0.79,0.71,0.85,1.14c0.26,1.94,0.51,3.89,0.55,5.84c0.14,6.82,0.2,13.64,0.29,20.46
			c0.01,0.51,0,1.03,0,1.74c1.53-0.64,2.91-1.23,4.29-1.81c0.18-0.08,0.35-0.25,0.53-0.27c1.87-0.19,2-1.42,1.96-2.95
			c-0.14-5.7-0.16-11.4-0.31-17.1c-0.06-2.19-0.42-4.36-0.54-6.55c-0.14-2.46-0.16-4.92-0.26-7.38c-0.03-0.79,0.4-1.31,1.08-1.28
			c0.3,0.02,0.75,0.75,0.81,1.19c0.25,1.94,0.5,3.89,0.54,5.84c0.14,6.9,0.2,13.8,0.28,20.7c0.02,1.94,0,3.89,0,5.94
			c2.6-0.99,5.04-1.95,7.49-2.86c4.17-1.55,8.36-3.06,12.53-4.62c0.49-0.18,0.89-0.57,1.34-0.86c0.2-0.13,0.38-0.3,0.6-0.36
			c1.81-0.55,3.63-1.08,5.45-1.61c1.56-0.46,3.15-0.85,4.69-1.38c1.14-0.39,2.21-1.33,3.32-1.34c1.24-0.02,2.18-0.54,3.24-0.88
			c0.46-0.15,0.73-0.31,0.96-0.92c0.2-0.52,1.4-0.68,2.16-0.98c0.57-0.23,1.16-0.41,1.74-0.63c2.03-0.81,4.06-1.63,6.1-2.42
			c0.2-0.08,0.58,0.01,0.71,0.17c0.14,0.17,0.18,0.53,0.11,0.76c-0.21,0.67-0.57,1.29-0.74,1.97c-0.42,1.67-1.37,3-2.57,4.16
			c-1.85,1.78-2.74,4.05-3.45,6.41c-0.15,0.48,0.05,1.07,0.1,1.72c0.35-0.17,0.56-0.27,0.59-0.29c0.03,3.54-1.72,6.32-4.15,8.75
			c1.14,1.08,1.38,1.07,2.66-0.26c0.14,0.31,0.43,0.63,0.35,0.81c-0.62,1.47-1.03,3.11-2.72,3.84c-1.87,0.81-3.71,1.67-5.59,2.47
			c-0.63,0.27-1.14,0.52-1.1,1.34c0.01,0.24-0.22,0.62-0.44,0.73c-1.17,0.6-2.37,1.17-3.58,1.69c-1.59,0.69-3.18,1.37-4.81,1.96
			c-1.57,0.57-3.23,0.89-4.75,1.55c-1.88,0.81-3.68,1.83-5.48,2.82c-2.48,1.36-5.14,2.2-7.89,2.78c-1.19,0.25-2.34,0.71-3.5,1.1
			c-1.09,0.36-2.19,0.71-3.24,1.17c-0.33,0.15-0.71,0.65-0.71,0.99c-0.08,8.02-0.09,16.04-0.15,24.07
			c-0.01,1.54-0.14,3.07-0.22,4.61c0.12,0.08,0.24,0.16,0.36,0.24c0.74-0.66,1.46-1.35,2.22-1.98c0.36-0.3,0.81-0.64,1.23-0.67
			c0.66-0.05,0.89-0.37,0.9-0.91c0.03-1.62,1.4-2.04,2.46-2.62c1.86-1.02,3.96-1.31,6.04-1.33c1.87-0.02,3.75,0.27,5.63,0.42
			c0.28,0.02,0.56,0.08,0.83,0.05c5.1-0.55,8.97,1.78,12.2,5.39c0.49,0.55,0.65,1.82,0.38,2.55c-1.17,3.25-3.37,5.48-6.89,6.26
			c-1.61,0.35-3.18,0.9-4.72,1.35c-1.24,5.88-2.65,11.74-4.64,17.48c-1.64,4.76-2.86,9.65-3.4,14.72c-0.25,2.37-0.87,4.71-0.7,7.13
			c0.03,0.41,0.28,0.97,0.61,1.18c2.33,1.46,4.73,2.8,7.04,4.28c0.57,0.36,0.85,1.14,1.33,1.67c0.41,0.46,0.94,0.82,1.37,1.27
			c2.09,2.22,4.17,4.47,6.39,6.84c-0.93,1.11-1.68,2.31-2.72,3.15c-0.99,0.8-2.25,1.35-3.46,1.82c-3.83,1.49-7.7,2.87-11.54,4.32
			c-2.84,1.07-2.84,1.09-2.84,4.16c0,0.83,0.01,1.67-0.02,2.5c-0.06,1.37-0.73,2.12-2.06,2.33c-0.08,0.01-0.18-0.01-0.23,0.03
			c-2.01,1.66-4.33,0.53-6.49,0.66c-3.25,0.2-6.55-0.2-9.78,0.14c-1.86,0.2-3.66,1.27-5.43,2.07c-5.67,2.55-11.32,5.16-16.98,7.75
			c-5.28,2.41-10.57,4.82-15.85,7.23c-0.21,0.09-0.39,0.25-0.58,0.37c13.31,8.38,26.57,16.73,39.84,25.09
			c-0.03,0.13-0.06,0.27-0.09,0.4c-0.33,0.09-0.69,0.32-0.97,0.24c-1.11-0.31-2.23-0.64-3.27-1.11c-1.97-0.88-3.88-1.88-5.84-2.8
			c-3.02-1.42-6.05-2.83-9.09-4.21c-2.4-1.09-4.84-2.11-7.24-3.19c-0.28-0.13-0.46-0.47-0.63-0.66c-0.65-0.13-1.32-0.17-1.92-0.41
			c-2.42-0.98-4.83-1.97-7.2-3.04c-1.43-0.65-2.75-1.56-4.2-2.14c-2.14-0.86-4.46-1.35-6.52-2.35c-2.02-0.99-3.61-0.42-5.35,0.51
			c-3.16,1.69-6.35,3.33-9.56,4.92c-1.68,0.83-3.43,1.49-5.14,2.26c-1.09,0.49-1.93,1.06-2.23,2.47c-0.45,2.08-1.31,4.08-2.03,6.1
			c-0.08,0.21-0.37,0.52-0.52,0.5c-0.26-0.05-0.58-0.26-0.71-0.5c-0.39-0.72-0.7-1.49-1.02-2.24c-0.23-0.53-0.43-1.08-0.62-1.62
			c-0.25-0.72-0.4-1.35-1.46-0.79c-1.37,0.72-2.86,1.19-4.25,1.85c-0.53,0.25-0.93,0.75-1.41,1.11c-0.22,0.17-0.47,0.31-0.72,0.41
			c-1.87,0.73-3.74,1.46-5.62,2.17c-1.78,0.67-3.58,1.26-5.34,1.99c-1.21,0.5-2.33,1.23-3.53,1.76c-0.42,0.19-1-0.01-1.42,0.16
			c-1,0.4-1.96,0.9-2.91,1.39c-0.21,0.11-0.42,0.37-0.48,0.6C31.55,255.82,31.31,255.95,30.5,255.67z M75.84,207.15
			c0.68-0.24,1.08-0.37,1.47-0.52c1.87-0.74,3.79-1.37,5.59-2.25c1.62-0.79,3.53-0.91,4.87-2.46c0.75-0.85,2.06-1.49,3.2-1.66
			c2.59-0.4,4.56-2,6.82-3.03c1.01-0.46,2.01-0.92,3.04-1.33c1.62-0.66,3.28-1.2,4.86-1.94c1.32-0.61,2.46-1.75,3.82-2.09
			c2.69-0.68,4.86-2.68,7.86-2.67c1.74,0.01,3.5-0.73,5.22-1.23c1.76-0.5,3.52-1.02,5.21-1.72c0.76-0.31,1.64-0.94,1.94-1.65
			c0.51-1.21,0.66-2.59,0.87-3.92c0.39-2.46,0.75-4.93,1.06-7.4c0.54-4.25,0.94-8.51,1.57-12.75c0.37-2.51,1.01-4.98,1.63-7.45
			c0.51-2.03,1.18-4.03,1.79-6.08c-0.56-0.04-1.18-0.27-1.61-0.08c-1.06,0.47-2.05,0.79-3.19,0.28c-0.18-0.08-0.51,0.07-0.74,0.18
			c-0.8,0.39-1.56,0.9-2.39,1.2c-0.98,0.35-2.07,0.41-3.01,0.82c-3.39,1.48-6.74,3.05-10.1,4.61c-0.18,0.09-0.26,0.41-0.23,0.38
			c-0.65,0.15-1.15,0.26-1.65,0.37c0.49,1.07-0.55,0.58-0.85,0.77c-0.71,0.45-1.5,0.75-2.27,1.09c-0.16,0.07-0.36,0.12-0.52,0.09
			c-1.12-0.17-2.01,0.23-2.96,0.81c-0.74,0.45-1.75,0.47-2.82,0.73c0.72-1.14,1.3-2.11,1.93-3.05c0.21-0.31,0.52-0.58,0.84-0.79
			c1.34-0.87,2.68-1.73,4.04-2.56c0.95-0.58,2-1.04,2.88-1.71c1.04-0.8,2.19-1.53,2.7-2.9c0.19-0.52,0.79-0.9,1.23-1.31
			c0.27-0.25,0.6-0.42,0.7-0.49c-0.25-0.81-0.43-1.41-0.61-2.01c0.58,0,1.15,0,1.74,0c-0.11-0.36-0.26-0.88-0.43-1.46
			c1.17,0.28,0.97-2.15,2.22-1.16c0.32-0.27,0.5-0.5,0.74-0.61c0.72-0.35,1.59-0.52,2.17-1.02c1.07-0.92,2.22-1.5,3.71-1.67
			c-0.26-0.82,0.13-1.07,0.91-1.09c0.28-0.01,0.55-0.37,0.83-0.56c0.57-0.39,1.18-0.73,1.69-1.18c0.64-0.57,1.7-1.21,1.73-1.86
			c0.23-5.41,0.27-10.84,0.35-16.25c0.05-3.22,0.1-6.43,0.05-9.65c-0.03-2.13-0.23-4.26-0.35-6.28c-1.68,0.46-3.23,0.87-4.76,1.31
			c-0.7,0.2-1.42,0.39-2.08,0.68c-1.01,0.45-1.95,1.02-2.96,1.46c-0.79,0.35-1.63,0.6-2.46,0.86c-1.48,0.46-3,0.82-4.46,1.36
			c-1.1,0.41-2.1,1.11-3.19,1.55c-1.31,0.53-2.69,0.88-4,1.38c-0.34,0.13-0.71,0.5-0.84,0.85c-1.73,4.45-3.47,8.9-5.11,13.38
			c-1.63,4.45-3.18,8.94-4.73,13.43c-2,5.8-3.96,11.61-5.95,17.42c-2.59,7.57-5.26,15.11-7.75,22.7c-1.43,4.34-2.55,8.78-3.87,13.16
			c-1.16,3.85-2.39,7.67-3.61,11.5C77.07,203.43,76.49,205.15,75.84,207.15z M142.06,97.4c-2.37,0.64-4.57,1.2-6.74,1.87
			c-0.33,0.1-0.69,0.76-0.71,1.16c-0.1,3.35-0.15,6.69-0.17,10.04c-0.03,4.66-0.01,9.33-0.03,13.99c-0.01,1.99-0.05,3.99-0.04,5.98
			c0,0.26,0.22,0.51,0.34,0.77c0.22-0.19,0.45-0.37,0.66-0.56c0.28-0.26,0.54-0.56,0.84-0.79c0.41-0.32,0.82-0.7,1.3-0.88
			c1.38-0.53,2.68-1.16,3.68-2.29c0.24-0.27,0.62-0.57,0.63-0.87c0.11-2.82,0.19-5.65,0.22-8.47c0.04-4.38,0.02-8.76,0.03-13.14
			C142.06,101.96,142.06,99.71,142.06,97.4z M123.49,246.97c0.04-0.06,0.08-0.12,0.11-0.18c-1.97-1.31-3.93-2.65-5.93-3.93
			c-2.22-1.42-4.51-2.74-6.7-4.21c-1.12-0.75-2.31-1.36-3.36-2.33c-1.19-1.12-3.07-1.47-4.55-2.32c-2.15-1.22-4.21-2.59-6.32-3.89
			c-0.2-0.12-0.53-0.17-0.62-0.34c-0.72-1.46-2.36-1.42-3.49-2.2c-1.69-1.16-2.64,0.59-3.94,0.97c-0.3,0.09-0.59,0.24-0.87,0.39
			c-0.78,0.42-1.55,0.86-2.43,1.34C98.21,235.89,110.85,241.43,123.49,246.97z"/>
		<path d="M134.19,252.44c0.65,0.39,1.31,0.78,2.11,1.26c-1.06,0.29-1.58,0.03-2.28-0.97C134.07,252.63,134.13,252.53,134.19,252.44
			z"/>
		<path class="st0" d="M75.84,207.15c0.66-2.01,1.23-3.73,1.78-5.45c1.21-3.83,2.45-7.65,3.61-11.5c1.32-4.38,2.44-8.82,3.87-13.16
			c2.5-7.6,5.16-15.14,7.75-22.7c1.99-5.81,3.95-11.62,5.95-17.42c1.55-4.48,3.09-8.97,4.73-13.43c1.64-4.48,3.38-8.93,5.11-13.38
			c0.13-0.35,0.5-0.72,0.84-0.85c1.32-0.5,2.7-0.85,4-1.38c1.1-0.44,2.09-1.14,3.19-1.55c1.45-0.54,2.97-0.9,4.46-1.36
			c0.83-0.26,1.66-0.51,2.46-0.86c1.01-0.44,1.96-1.02,2.96-1.46c0.66-0.29,1.38-0.48,2.08-0.68c1.54-0.44,3.08-0.85,4.76-1.31
			c0.12,2.02,0.32,4.15,0.35,6.28c0.05,3.22-0.01,6.43-0.05,9.65c-0.08,5.42-0.12,10.84-0.35,16.25c-0.03,0.65-1.08,1.29-1.73,1.86
			c-0.51,0.45-1.13,0.79-1.69,1.18c-0.28,0.19-0.55,0.55-0.83,0.56c-0.77,0.03-1.17,0.28-0.91,1.09c-1.49,0.17-2.64,0.76-3.71,1.67
			c-0.58,0.5-1.45,0.67-2.17,1.02c-0.24,0.11-0.42,0.34-0.74,0.61c-1.25-0.99-1.05,1.44-2.22,1.16c0.17,0.59,0.32,1.1,0.43,1.46
			c-0.58,0-1.16,0-1.74,0c0.18,0.6,0.37,1.2,0.61,2.01c-0.1,0.07-0.43,0.24-0.7,0.49c-0.45,0.41-1.04,0.79-1.23,1.31
			c-0.51,1.37-1.65,2.1-2.7,2.9c-0.88,0.68-1.93,1.13-2.88,1.71c-1.36,0.84-2.71,1.69-4.04,2.56c-0.32,0.21-0.63,0.48-0.84,0.79
			c-0.63,0.94-1.21,1.91-1.93,3.05c1.07-0.26,2.08-0.28,2.82-0.73c0.95-0.58,1.85-0.98,2.96-0.81c0.17,0.02,0.36-0.02,0.52-0.09
			c0.77-0.34,1.57-0.65,2.27-1.09c0.3-0.19,1.34,0.3,0.85-0.77c0.5-0.11,1-0.22,1.65-0.37c-0.02,0.04,0.05-0.29,0.23-0.38
			c3.36-1.56,6.71-3.13,10.1-4.61c0.94-0.41,2.04-0.47,3.01-0.82c0.83-0.3,1.59-0.81,2.39-1.2c0.23-0.11,0.56-0.26,0.74-0.18
			c1.13,0.51,2.13,0.19,3.19-0.28c0.43-0.19,1.06,0.04,1.61,0.08c-0.61,2.05-1.27,4.05-1.79,6.08c-0.62,2.46-1.26,4.94-1.63,7.45
			c-0.63,4.23-1.03,8.5-1.57,12.75c-0.31,2.47-0.67,4.94-1.06,7.4c-0.21,1.32-0.36,2.7-0.87,3.92c-0.3,0.71-1.18,1.34-1.94,1.65
			c-1.69,0.69-3.45,1.21-5.21,1.72c-1.73,0.49-3.48,1.24-5.22,1.23c-2.99-0.01-5.16,2-7.86,2.67c-1.36,0.34-2.5,1.48-3.82,2.09
			c-1.58,0.74-3.25,1.28-4.86,1.94c-1.02,0.42-2.03,0.87-3.04,1.33c-2.26,1.03-4.23,2.63-6.82,3.03c-1.14,0.18-2.46,0.81-3.2,1.66
			c-1.35,1.54-3.25,1.66-4.87,2.46c-1.8,0.88-3.72,1.52-5.59,2.25C76.92,206.79,76.52,206.91,75.84,207.15z"/>
		<path class="st0" d="M142.06,97.4c0,2.31,0,4.56,0,6.81c0,4.38,0.01,8.76-0.03,13.14c-0.02,2.83-0.1,5.65-0.22,8.47
			c-0.01,0.3-0.39,0.6-0.63,0.87c-1,1.13-2.3,1.76-3.68,2.29c-0.48,0.18-0.88,0.56-1.3,0.88c-0.3,0.24-0.56,0.53-0.84,0.79
			c-0.21,0.19-0.44,0.37-0.66,0.56c-0.12-0.26-0.33-0.51-0.34-0.77c-0.01-1.99,0.03-3.99,0.04-5.98c0.01-4.66,0-9.33,0.03-13.99
			c0.02-3.35,0.07-6.7,0.17-10.04c0.01-0.41,0.37-1.06,0.71-1.16C137.49,98.6,139.7,98.04,142.06,97.4z"/>
		<path class="st0" d="M123.49,246.97c-12.64-5.54-25.28-11.08-38.09-16.69c0.88-0.49,1.65-0.92,2.43-1.34
			c0.28-0.15,0.57-0.3,0.87-0.39c1.3-0.38,2.25-2.13,3.94-0.97c1.13,0.78,2.77,0.74,3.49,2.2c0.09,0.17,0.41,0.21,0.62,0.34
			c2.1,1.3,4.17,2.67,6.32,3.89c1.49,0.85,3.36,1.2,4.55,2.32c1.04,0.98,2.23,1.58,3.36,2.33c2.19,1.47,4.48,2.79,6.7,4.21
			c2,1.28,3.95,2.62,5.93,3.93C123.56,246.85,123.53,246.91,123.49,246.97z"/>
	</g>
</g>
</svg>
